<mxfile host="app.diagrams.net" agent="Mozilla/5.0 (Windows NT 10.0; Win64; x64) AppleWebKit/537.36 (KHTML, like Gecko) Chrome/129.0.0.0 Safari/537.36" version="24.7.17">
  <diagram name="Page-1" id="fc2ac565-0d4e-3f0d-88b0-a54af1634ed7">
    <mxGraphModel dx="1687" dy="875" grid="1" gridSize="10" guides="1" tooltips="1" connect="0" arrows="1" fold="1" page="1" pageScale="1.5" pageWidth="1169" pageHeight="827" background="none" math="0" shadow="0">
      <root>
        <mxCell id="0" style=";html=1;" />
        <mxCell id="1" style=";html=1;" parent="0" />
        <mxCell id="75" value="Project Initiation" style="align=left;strokeColor=#CCCCCC;html=1;" parent="1" vertex="1">
          <mxGeometry x="297.0000000000003" y="209.99999999999977" width="319.9999999999997" height="20.000000000000014" as="geometry" />
        </mxCell>
        <mxCell id="80" value="Scope Definition" style="align=left;strokeColor=#CCCCCC;html=1;" parent="1" vertex="1">
          <mxGeometry x="297" y="230.00000000000023" width="320" height="20" as="geometry" />
        </mxCell>
        <mxCell id="85" value="Initial Client Meetings" style="align=left;strokeColor=#CCCCCC;html=1;" parent="1" vertex="1">
          <mxGeometry x="296.9999999999999" y="250.00000000000023" width="320.0000000000001" height="20" as="geometry" />
        </mxCell>
        <mxCell id="90" value="Team Setup" style="align=left;strokeColor=#CCCCCC;html=1;" parent="1" vertex="1">
          <mxGeometry x="296.9999999999999" y="270.00000000000045" width="320.0000000000001" height="20" as="geometry" />
        </mxCell>
        <mxCell id="95" value="Resource Allocation" style="align=left;strokeColor=#CCCCCC;html=1;" parent="1" vertex="1">
          <mxGeometry x="297.0000000000006" y="290.0000000000007" width="319.9999999999994" height="20" as="geometry" />
        </mxCell>
        <mxCell id="100" value="Timeline Structuring" style="align=left;strokeColor=#CCCCCC;html=1;" parent="1" vertex="1">
          <mxGeometry x="297.0000000000006" y="310.00000000000057" width="319.9999999999994" height="20" as="geometry" />
        </mxCell>
        <mxCell id="2" value="&lt;b&gt;Planning&lt;/b&gt;" style="strokeWidth=1;fontStyle=0;html=1;" parent="1" vertex="1">
          <mxGeometry x="297" y="190" width="320" height="20" as="geometry" />
        </mxCell>
        <mxCell id="67c90442a009f359-289" value="Budget Planning" style="align=left;strokeColor=#CCCCCC;html=1;" parent="1" vertex="1">
          <mxGeometry x="297.0000000000006" y="330.00000000000057" width="319.9999999999994" height="20" as="geometry" />
        </mxCell>
        <mxCell id="67c90442a009f359-290" value="Project Kickoff Meeting" style="align=left;strokeColor=#CCCCCC;html=1;" parent="1" vertex="1">
          <mxGeometry x="297.0000000000006" y="350.00000000000057" width="319.9999999999994" height="20" as="geometry" />
        </mxCell>
        <mxCell id="67c90442a009f359-291" value="" style="align=left;strokeColor=#CCCCCC;html=1;" parent="1" vertex="1">
          <mxGeometry x="617" y="210" width="1000" height="20" as="geometry" />
        </mxCell>
        <mxCell id="4" value="Aug" style="strokeWidth=1;fontStyle=0;html=1;" parent="1" vertex="1">
          <mxGeometry x="617" y="190" width="200" height="20" as="geometry" />
        </mxCell>
        <mxCell id="67c90442a009f359-278" value="Sept" style="strokeWidth=1;fontStyle=0;html=1;" parent="1" vertex="1">
          <mxGeometry x="817" y="190" width="200" height="20" as="geometry" />
        </mxCell>
        <mxCell id="67c90442a009f359-279" value="Oct" style="strokeWidth=1;fontStyle=0;html=1;" parent="1" vertex="1">
          <mxGeometry x="1017" y="190" width="200" height="20" as="geometry" />
        </mxCell>
        <mxCell id="67c90442a009f359-280" value="Nov" style="strokeWidth=1;fontStyle=0;html=1;" parent="1" vertex="1">
          <mxGeometry x="1217" y="190" width="200" height="20" as="geometry" />
        </mxCell>
        <mxCell id="67c90442a009f359-281" value="Dec" style="strokeWidth=1;fontStyle=0;html=1;" parent="1" vertex="1">
          <mxGeometry x="1417" y="190" width="200" height="20" as="geometry" />
        </mxCell>
        <mxCell id="67c90442a009f359-292" value="" style="align=left;strokeColor=#CCCCCC;html=1;" parent="1" vertex="1">
          <mxGeometry x="617" y="230" width="1000" height="20" as="geometry" />
        </mxCell>
        <mxCell id="67c90442a009f359-293" value="" style="align=left;strokeColor=#CCCCCC;html=1;" parent="1" vertex="1">
          <mxGeometry x="617" y="250" width="1000" height="20" as="geometry" />
        </mxCell>
        <mxCell id="67c90442a009f359-294" value="" style="align=left;strokeColor=#CCCCCC;html=1;" parent="1" vertex="1">
          <mxGeometry x="617" y="270" width="1000" height="20" as="geometry" />
        </mxCell>
        <mxCell id="67c90442a009f359-295" value="" style="align=left;strokeColor=#CCCCCC;html=1;" parent="1" vertex="1">
          <mxGeometry x="617" y="290" width="1000" height="20" as="geometry" />
        </mxCell>
        <mxCell id="67c90442a009f359-296" value="" style="align=left;strokeColor=#CCCCCC;html=1;" parent="1" vertex="1">
          <mxGeometry x="617" y="310" width="1000" height="20" as="geometry" />
        </mxCell>
        <mxCell id="67c90442a009f359-297" value="" style="align=left;strokeColor=#CCCCCC;html=1;" parent="1" vertex="1">
          <mxGeometry x="617" y="330" width="1000" height="20" as="geometry" />
        </mxCell>
        <mxCell id="67c90442a009f359-298" value="" style="align=left;strokeColor=#CCCCCC;html=1;" parent="1" vertex="1">
          <mxGeometry x="617" y="350" width="1000" height="20" as="geometry" />
        </mxCell>
        <mxCell id="67c90442a009f359-299" value="" style="whiteSpace=wrap;html=1;strokeWidth=2;fillColor=#CCCCCC;gradientColor=none;fontSize=14;align=center;strokeColor=#999999;" parent="1" vertex="1">
          <mxGeometry x="617" y="210" width="123" height="20" as="geometry" />
        </mxCell>
        <mxCell id="67c90442a009f359-300" value="" style="whiteSpace=wrap;html=1;strokeWidth=2;fillColor=#CCCCCC;gradientColor=none;fontSize=14;align=center;strokeColor=#999999;" parent="1" vertex="1">
          <mxGeometry x="680" y="230" width="150" height="20" as="geometry" />
        </mxCell>
        <mxCell id="67c90442a009f359-301" value="" style="whiteSpace=wrap;html=1;strokeWidth=2;fillColor=#CCCCCC;gradientColor=none;fontSize=14;align=center;strokeColor=#999999;" parent="1" vertex="1">
          <mxGeometry x="720" y="250" width="164" height="20" as="geometry" />
        </mxCell>
        <mxCell id="67c90442a009f359-302" value="" style="whiteSpace=wrap;html=1;strokeWidth=2;fillColor=#CCCCCC;gradientColor=none;fontSize=14;align=center;strokeColor=#999999;" parent="1" vertex="1">
          <mxGeometry x="770" y="270" width="160" height="20" as="geometry" />
        </mxCell>
        <mxCell id="67c90442a009f359-303" value="" style="whiteSpace=wrap;html=1;strokeWidth=2;fillColor=#CCCCCC;gradientColor=none;fontSize=14;align=center;strokeColor=#999999;" parent="1" vertex="1">
          <mxGeometry x="810" y="290" width="152.5" height="20" as="geometry" />
        </mxCell>
        <mxCell id="67c90442a009f359-304" value="" style="whiteSpace=wrap;html=1;strokeWidth=2;fillColor=#CCCCCC;gradientColor=none;fontSize=14;align=center;strokeColor=#999999;" parent="1" vertex="1">
          <mxGeometry x="860" y="310" width="113" height="20" as="geometry" />
        </mxCell>
        <mxCell id="67c90442a009f359-305" value="" style="whiteSpace=wrap;html=1;strokeWidth=2;fillColor=#CCCCCC;gradientColor=none;fontSize=14;align=center;strokeColor=#999999;" parent="1" vertex="1">
          <mxGeometry x="910" y="330" width="87" height="20" as="geometry" />
        </mxCell>
        <mxCell id="67c90442a009f359-306" value="" style="whiteSpace=wrap;html=1;strokeWidth=2;fillColor=#CCCCCC;gradientColor=none;fontSize=14;align=center;strokeColor=#999999;" parent="1" vertex="1">
          <mxGeometry x="940" y="350" width="77" height="20" as="geometry" />
        </mxCell>
        <mxCell id="IT2jW9cjP_Kab51hzpos-100" value="1st Semester" style="strokeWidth=1;fontStyle=0;html=1;" vertex="1" parent="1">
          <mxGeometry x="297" y="170" width="1320" height="20" as="geometry" />
        </mxCell>
        <mxCell id="IT2jW9cjP_Kab51hzpos-101" value="Current System Evaluation" style="align=left;strokeColor=#CCCCCC;html=1;" vertex="1" parent="1">
          <mxGeometry x="297.0000000000003" y="389.9999999999998" width="319.9999999999997" height="20.000000000000014" as="geometry" />
        </mxCell>
        <mxCell id="IT2jW9cjP_Kab51hzpos-102" value="Requirement Gathering" style="align=left;strokeColor=#CCCCCC;html=1;" vertex="1" parent="1">
          <mxGeometry x="297" y="410.0000000000002" width="320" height="20" as="geometry" />
        </mxCell>
        <mxCell id="IT2jW9cjP_Kab51hzpos-103" value="Analysis of Requirements" style="align=left;strokeColor=#CCCCCC;html=1;" vertex="1" parent="1">
          <mxGeometry x="296.9999999999999" y="430.0000000000002" width="320.0000000000001" height="20" as="geometry" />
        </mxCell>
        <mxCell id="IT2jW9cjP_Kab51hzpos-104" value="System Concept Development" style="align=left;strokeColor=#CCCCCC;html=1;" vertex="1" parent="1">
          <mxGeometry x="296.9999999999999" y="450.00000000000045" width="320.0000000000001" height="20" as="geometry" />
        </mxCell>
        <mxCell id="IT2jW9cjP_Kab51hzpos-105" value="Resource Allocation" style="align=left;strokeColor=#CCCCCC;html=1;" vertex="1" parent="1">
          <mxGeometry x="297.0000000000006" y="470.0000000000007" width="319.9999999999994" height="20" as="geometry" />
        </mxCell>
        <mxCell id="IT2jW9cjP_Kab51hzpos-106" value="System Proposal Preparation" style="align=left;strokeColor=#CCCCCC;html=1;" vertex="1" parent="1">
          <mxGeometry x="297.0000000000006" y="490.00000000000057" width="319.9999999999994" height="20" as="geometry" />
        </mxCell>
        <mxCell id="IT2jW9cjP_Kab51hzpos-107" value="Presentation to Client" style="align=left;strokeColor=#CCCCCC;html=1;" vertex="1" parent="1">
          <mxGeometry x="297.0000000000006" y="510.00000000000057" width="319.9999999999994" height="20" as="geometry" />
        </mxCell>
        <mxCell id="IT2jW9cjP_Kab51hzpos-109" value="" style="align=left;strokeColor=#CCCCCC;html=1;" vertex="1" parent="1">
          <mxGeometry x="617" y="390" width="1000" height="20" as="geometry" />
        </mxCell>
        <mxCell id="IT2jW9cjP_Kab51hzpos-110" value="" style="align=left;strokeColor=#CCCCCC;html=1;" vertex="1" parent="1">
          <mxGeometry x="617" y="410" width="1000" height="20" as="geometry" />
        </mxCell>
        <mxCell id="IT2jW9cjP_Kab51hzpos-111" value="" style="align=left;strokeColor=#CCCCCC;html=1;" vertex="1" parent="1">
          <mxGeometry x="617" y="430" width="1000" height="20" as="geometry" />
        </mxCell>
        <mxCell id="IT2jW9cjP_Kab51hzpos-112" value="" style="align=left;strokeColor=#CCCCCC;html=1;" vertex="1" parent="1">
          <mxGeometry x="617" y="450" width="1000" height="20" as="geometry" />
        </mxCell>
        <mxCell id="IT2jW9cjP_Kab51hzpos-113" value="" style="align=left;strokeColor=#CCCCCC;html=1;" vertex="1" parent="1">
          <mxGeometry x="617" y="470" width="1000" height="20" as="geometry" />
        </mxCell>
        <mxCell id="IT2jW9cjP_Kab51hzpos-114" value="" style="align=left;strokeColor=#CCCCCC;html=1;" vertex="1" parent="1">
          <mxGeometry x="617" y="490" width="1000" height="20" as="geometry" />
        </mxCell>
        <mxCell id="IT2jW9cjP_Kab51hzpos-115" value="" style="align=left;strokeColor=#CCCCCC;html=1;" vertex="1" parent="1">
          <mxGeometry x="617" y="510" width="1000" height="20" as="geometry" />
        </mxCell>
        <mxCell id="IT2jW9cjP_Kab51hzpos-117" value="" style="whiteSpace=wrap;html=1;strokeWidth=2;fillColor=#CCCCCC;gradientColor=none;fontSize=14;align=center;strokeColor=#999999;" vertex="1" parent="1">
          <mxGeometry x="980" y="390" width="90" height="20" as="geometry" />
        </mxCell>
        <mxCell id="IT2jW9cjP_Kab51hzpos-118" value="" style="whiteSpace=wrap;html=1;strokeWidth=2;fillColor=#CCCCCC;gradientColor=none;fontSize=14;align=center;strokeColor=#999999;" vertex="1" parent="1">
          <mxGeometry x="1020" y="410" width="84" height="20" as="geometry" />
        </mxCell>
        <mxCell id="IT2jW9cjP_Kab51hzpos-119" value="" style="whiteSpace=wrap;html=1;strokeWidth=2;fillColor=#CCCCCC;gradientColor=none;fontSize=14;align=center;strokeColor=#999999;" vertex="1" parent="1">
          <mxGeometry x="1050" y="430" width="93" height="20" as="geometry" />
        </mxCell>
        <mxCell id="IT2jW9cjP_Kab51hzpos-120" value="" style="whiteSpace=wrap;html=1;strokeWidth=2;fillColor=#CCCCCC;gradientColor=none;fontSize=14;align=center;strokeColor=#999999;" vertex="1" parent="1">
          <mxGeometry x="1100" y="450" width="90" height="20" as="geometry" />
        </mxCell>
        <mxCell id="IT2jW9cjP_Kab51hzpos-121" value="" style="whiteSpace=wrap;html=1;strokeWidth=2;fillColor=#CCCCCC;gradientColor=none;fontSize=14;align=center;strokeColor=#999999;" vertex="1" parent="1">
          <mxGeometry x="1143" y="470" width="90" height="20" as="geometry" />
        </mxCell>
        <mxCell id="IT2jW9cjP_Kab51hzpos-122" value="" style="whiteSpace=wrap;html=1;strokeWidth=2;fillColor=#CCCCCC;gradientColor=none;fontSize=14;align=center;strokeColor=#999999;" vertex="1" parent="1">
          <mxGeometry x="1180" y="490" width="103.5" height="20" as="geometry" />
        </mxCell>
        <mxCell id="IT2jW9cjP_Kab51hzpos-123" value="" style="whiteSpace=wrap;html=1;strokeWidth=2;fillColor=#CCCCCC;gradientColor=none;fontSize=14;align=center;strokeColor=#999999;" vertex="1" parent="1">
          <mxGeometry x="1233" y="510" width="97" height="20" as="geometry" />
        </mxCell>
        <mxCell id="IT2jW9cjP_Kab51hzpos-125" value="&lt;b&gt;Analysis&lt;/b&gt;" style="strokeWidth=1;fontStyle=0;html=1;" vertex="1" parent="1">
          <mxGeometry x="297" y="370" width="320" height="20" as="geometry" />
        </mxCell>
        <mxCell id="IT2jW9cjP_Kab51hzpos-126" value="" style="align=left;strokeColor=#CCCCCC;html=1;flipH=1;" vertex="1" parent="1">
          <mxGeometry x="617" y="370" width="1000" height="20" as="geometry" />
        </mxCell>
        <mxCell id="IT2jW9cjP_Kab51hzpos-127" value="System Architecture Design" style="align=left;strokeColor=#CCCCCC;html=1;" vertex="1" parent="1">
          <mxGeometry x="297.0000000000003" y="549.9999999999998" width="319.9999999999997" height="20.000000000000014" as="geometry" />
        </mxCell>
        <mxCell id="IT2jW9cjP_Kab51hzpos-128" value="Technology Stack Decision" style="align=left;strokeColor=#CCCCCC;html=1;" vertex="1" parent="1">
          <mxGeometry x="297" y="570.0000000000002" width="320" height="20" as="geometry" />
        </mxCell>
        <mxCell id="IT2jW9cjP_Kab51hzpos-129" value="Data Modeling" style="align=left;strokeColor=#CCCCCC;html=1;" vertex="1" parent="1">
          <mxGeometry x="296.9999999999999" y="590.0000000000002" width="320.0000000000001" height="20" as="geometry" />
        </mxCell>
        <mxCell id="IT2jW9cjP_Kab51hzpos-130" value="UI/UX Design" style="align=left;strokeColor=#CCCCCC;html=1;" vertex="1" parent="1">
          <mxGeometry x="296.9999999999999" y="610.0000000000005" width="320.0000000000001" height="20" as="geometry" />
        </mxCell>
        <mxCell id="IT2jW9cjP_Kab51hzpos-131" value="Prototyping" style="align=left;strokeColor=#CCCCCC;html=1;" vertex="1" parent="1">
          <mxGeometry x="297.0000000000006" y="630.0000000000007" width="319.9999999999994" height="20" as="geometry" />
        </mxCell>
        <mxCell id="IT2jW9cjP_Kab51hzpos-132" value="Design Reviews" style="align=left;strokeColor=#CCCCCC;html=1;" vertex="1" parent="1">
          <mxGeometry x="297.0000000000006" y="650.0000000000006" width="319.9999999999994" height="20" as="geometry" />
        </mxCell>
        <mxCell id="IT2jW9cjP_Kab51hzpos-134" value="" style="align=left;strokeColor=#CCCCCC;html=1;" vertex="1" parent="1">
          <mxGeometry x="617" y="550" width="1000" height="20" as="geometry" />
        </mxCell>
        <mxCell id="IT2jW9cjP_Kab51hzpos-135" value="" style="align=left;strokeColor=#CCCCCC;html=1;" vertex="1" parent="1">
          <mxGeometry x="617" y="570" width="1000" height="20" as="geometry" />
        </mxCell>
        <mxCell id="IT2jW9cjP_Kab51hzpos-136" value="" style="align=left;strokeColor=#CCCCCC;html=1;" vertex="1" parent="1">
          <mxGeometry x="617" y="590" width="1000" height="20" as="geometry" />
        </mxCell>
        <mxCell id="IT2jW9cjP_Kab51hzpos-137" value="" style="align=left;strokeColor=#CCCCCC;html=1;" vertex="1" parent="1">
          <mxGeometry x="617" y="610" width="1000" height="20" as="geometry" />
        </mxCell>
        <mxCell id="IT2jW9cjP_Kab51hzpos-138" value="" style="align=left;strokeColor=#CCCCCC;html=1;" vertex="1" parent="1">
          <mxGeometry x="617" y="630" width="1000" height="20" as="geometry" />
        </mxCell>
        <mxCell id="IT2jW9cjP_Kab51hzpos-139" value="" style="align=left;strokeColor=#CCCCCC;html=1;" vertex="1" parent="1">
          <mxGeometry x="617" y="650" width="1000" height="20" as="geometry" />
        </mxCell>
        <mxCell id="IT2jW9cjP_Kab51hzpos-141" value="" style="whiteSpace=wrap;html=1;strokeWidth=2;fillColor=#CCCCCC;gradientColor=none;fontSize=14;align=center;strokeColor=#999999;" vertex="1" parent="1">
          <mxGeometry x="1270" y="550" width="113.5" height="20" as="geometry" />
        </mxCell>
        <mxCell id="IT2jW9cjP_Kab51hzpos-142" value="" style="whiteSpace=wrap;html=1;strokeWidth=2;fillColor=#CCCCCC;gradientColor=none;fontSize=14;align=center;strokeColor=#999999;" vertex="1" parent="1">
          <mxGeometry x="1330" y="570" width="110" height="20" as="geometry" />
        </mxCell>
        <mxCell id="IT2jW9cjP_Kab51hzpos-143" value="" style="whiteSpace=wrap;html=1;strokeWidth=2;fillColor=#CCCCCC;gradientColor=none;fontSize=14;align=center;strokeColor=#999999;" vertex="1" parent="1">
          <mxGeometry x="1380" y="590" width="110" height="20" as="geometry" />
        </mxCell>
        <mxCell id="IT2jW9cjP_Kab51hzpos-144" value="" style="whiteSpace=wrap;html=1;strokeWidth=2;fillColor=#CCCCCC;gradientColor=none;fontSize=14;align=center;strokeColor=#999999;" vertex="1" parent="1">
          <mxGeometry x="1440" y="610" width="100" height="20" as="geometry" />
        </mxCell>
        <mxCell id="IT2jW9cjP_Kab51hzpos-145" value="" style="whiteSpace=wrap;html=1;strokeWidth=2;fillColor=#CCCCCC;gradientColor=none;fontSize=14;align=center;strokeColor=#999999;" vertex="1" parent="1">
          <mxGeometry x="1490" y="630" width="97" height="20" as="geometry" />
        </mxCell>
        <mxCell id="IT2jW9cjP_Kab51hzpos-146" value="" style="whiteSpace=wrap;html=1;strokeWidth=2;fillColor=#CCCCCC;gradientColor=none;fontSize=14;align=center;strokeColor=#999999;" vertex="1" parent="1">
          <mxGeometry x="1540" y="650" width="77" height="20" as="geometry" />
        </mxCell>
        <mxCell id="IT2jW9cjP_Kab51hzpos-148" value="&lt;b&gt;Design&lt;/b&gt;" style="strokeWidth=1;fontStyle=0;html=1;" vertex="1" parent="1">
          <mxGeometry x="297" y="530" width="320" height="20" as="geometry" />
        </mxCell>
        <mxCell id="IT2jW9cjP_Kab51hzpos-149" value="" style="align=left;strokeColor=#CCCCCC;html=1;flipH=1;" vertex="1" parent="1">
          <mxGeometry x="617" y="530" width="1000" height="20" as="geometry" />
        </mxCell>
        <mxCell id="IT2jW9cjP_Kab51hzpos-150" value="Project Initiation" style="align=left;strokeColor=#CCCCCC;html=1;" vertex="1" parent="1">
          <mxGeometry x="297.0000000000003" y="769.9999999999998" width="319.9999999999997" height="20.000000000000014" as="geometry" />
        </mxCell>
        <mxCell id="IT2jW9cjP_Kab51hzpos-151" value="Scope Definition" style="align=left;strokeColor=#CCCCCC;html=1;" vertex="1" parent="1">
          <mxGeometry x="297" y="790.0000000000002" width="320" height="20" as="geometry" />
        </mxCell>
        <mxCell id="IT2jW9cjP_Kab51hzpos-152" value="Initial Client Meetings" style="align=left;strokeColor=#CCCCCC;html=1;" vertex="1" parent="1">
          <mxGeometry x="296.9999999999999" y="810.0000000000002" width="320.0000000000001" height="20" as="geometry" />
        </mxCell>
        <mxCell id="IT2jW9cjP_Kab51hzpos-153" value="Team Setup" style="align=left;strokeColor=#CCCCCC;html=1;" vertex="1" parent="1">
          <mxGeometry x="296.9999999999999" y="830.0000000000005" width="320.0000000000001" height="20" as="geometry" />
        </mxCell>
        <mxCell id="IT2jW9cjP_Kab51hzpos-154" value="Resource Allocation" style="align=left;strokeColor=#CCCCCC;html=1;" vertex="1" parent="1">
          <mxGeometry x="297.0000000000006" y="850.0000000000007" width="319.9999999999994" height="20" as="geometry" />
        </mxCell>
        <mxCell id="IT2jW9cjP_Kab51hzpos-155" value="Timeline Structuring" style="align=left;strokeColor=#CCCCCC;html=1;" vertex="1" parent="1">
          <mxGeometry x="297.0000000000006" y="870.0000000000006" width="319.9999999999994" height="20" as="geometry" />
        </mxCell>
        <mxCell id="IT2jW9cjP_Kab51hzpos-156" value="&lt;b&gt;Planning&lt;/b&gt;" style="strokeWidth=1;fontStyle=0;html=1;" vertex="1" parent="1">
          <mxGeometry x="297" y="750" width="320" height="20" as="geometry" />
        </mxCell>
        <mxCell id="IT2jW9cjP_Kab51hzpos-157" value="Budget Planning" style="align=left;strokeColor=#CCCCCC;html=1;" vertex="1" parent="1">
          <mxGeometry x="297.0000000000006" y="890.0000000000006" width="319.9999999999994" height="20" as="geometry" />
        </mxCell>
        <mxCell id="IT2jW9cjP_Kab51hzpos-158" value="Project Kickoff Meeting" style="align=left;strokeColor=#CCCCCC;html=1;" vertex="1" parent="1">
          <mxGeometry x="297.0000000000006" y="910.0000000000006" width="319.9999999999994" height="20" as="geometry" />
        </mxCell>
        <mxCell id="IT2jW9cjP_Kab51hzpos-159" value="" style="align=left;strokeColor=#CCCCCC;html=1;" vertex="1" parent="1">
          <mxGeometry x="617" y="770" width="1000" height="20" as="geometry" />
        </mxCell>
        <mxCell id="IT2jW9cjP_Kab51hzpos-160" value="Aug" style="strokeWidth=1;fontStyle=0;html=1;" vertex="1" parent="1">
          <mxGeometry x="617" y="750" width="200" height="20" as="geometry" />
        </mxCell>
        <mxCell id="IT2jW9cjP_Kab51hzpos-161" value="Sept" style="strokeWidth=1;fontStyle=0;html=1;" vertex="1" parent="1">
          <mxGeometry x="817" y="750" width="200" height="20" as="geometry" />
        </mxCell>
        <mxCell id="IT2jW9cjP_Kab51hzpos-162" value="Oct" style="strokeWidth=1;fontStyle=0;html=1;" vertex="1" parent="1">
          <mxGeometry x="1017" y="750" width="200" height="20" as="geometry" />
        </mxCell>
        <mxCell id="IT2jW9cjP_Kab51hzpos-163" value="Nov" style="strokeWidth=1;fontStyle=0;html=1;" vertex="1" parent="1">
          <mxGeometry x="1217" y="750" width="200" height="20" as="geometry" />
        </mxCell>
        <mxCell id="IT2jW9cjP_Kab51hzpos-164" value="Dec" style="strokeWidth=1;fontStyle=0;html=1;" vertex="1" parent="1">
          <mxGeometry x="1417" y="750" width="200" height="20" as="geometry" />
        </mxCell>
        <mxCell id="IT2jW9cjP_Kab51hzpos-165" value="" style="align=left;strokeColor=#CCCCCC;html=1;" vertex="1" parent="1">
          <mxGeometry x="617" y="790" width="1000" height="20" as="geometry" />
        </mxCell>
        <mxCell id="IT2jW9cjP_Kab51hzpos-166" value="" style="align=left;strokeColor=#CCCCCC;html=1;" vertex="1" parent="1">
          <mxGeometry x="617" y="810" width="1000" height="20" as="geometry" />
        </mxCell>
        <mxCell id="IT2jW9cjP_Kab51hzpos-167" value="" style="align=left;strokeColor=#CCCCCC;html=1;" vertex="1" parent="1">
          <mxGeometry x="617" y="830" width="1000" height="20" as="geometry" />
        </mxCell>
        <mxCell id="IT2jW9cjP_Kab51hzpos-168" value="" style="align=left;strokeColor=#CCCCCC;html=1;" vertex="1" parent="1">
          <mxGeometry x="617" y="850" width="1000" height="20" as="geometry" />
        </mxCell>
        <mxCell id="IT2jW9cjP_Kab51hzpos-169" value="" style="align=left;strokeColor=#CCCCCC;html=1;" vertex="1" parent="1">
          <mxGeometry x="617" y="870" width="1000" height="20" as="geometry" />
        </mxCell>
        <mxCell id="IT2jW9cjP_Kab51hzpos-170" value="" style="align=left;strokeColor=#CCCCCC;html=1;" vertex="1" parent="1">
          <mxGeometry x="617" y="890" width="1000" height="20" as="geometry" />
        </mxCell>
        <mxCell id="IT2jW9cjP_Kab51hzpos-171" value="" style="align=left;strokeColor=#CCCCCC;html=1;" vertex="1" parent="1">
          <mxGeometry x="617" y="910" width="1000" height="20" as="geometry" />
        </mxCell>
        <mxCell id="IT2jW9cjP_Kab51hzpos-172" value="" style="whiteSpace=wrap;html=1;strokeWidth=2;fillColor=#CCCCCC;gradientColor=none;fontSize=14;align=center;strokeColor=#999999;" vertex="1" parent="1">
          <mxGeometry x="617" y="770" width="210" height="20" as="geometry" />
        </mxCell>
        <mxCell id="IT2jW9cjP_Kab51hzpos-173" value="" style="whiteSpace=wrap;html=1;strokeWidth=2;fillColor=#CCCCCC;gradientColor=none;fontSize=14;align=center;strokeColor=#999999;" vertex="1" parent="1">
          <mxGeometry x="687" y="790" width="140" height="20" as="geometry" />
        </mxCell>
        <mxCell id="IT2jW9cjP_Kab51hzpos-174" value="" style="whiteSpace=wrap;html=1;strokeWidth=2;fillColor=#CCCCCC;gradientColor=none;fontSize=14;align=center;strokeColor=#999999;" vertex="1" parent="1">
          <mxGeometry x="827" y="810" width="70" height="20" as="geometry" />
        </mxCell>
        <mxCell id="IT2jW9cjP_Kab51hzpos-175" value="" style="whiteSpace=wrap;html=1;strokeWidth=2;fillColor=#CCCCCC;gradientColor=none;fontSize=14;align=center;strokeColor=#999999;" vertex="1" parent="1">
          <mxGeometry x="897" y="830" width="210" height="20" as="geometry" />
        </mxCell>
        <mxCell id="IT2jW9cjP_Kab51hzpos-176" value="" style="whiteSpace=wrap;html=1;strokeWidth=2;fillColor=#CCCCCC;gradientColor=none;fontSize=14;align=center;strokeColor=#999999;" vertex="1" parent="1">
          <mxGeometry x="724" y="850" width="140" height="20" as="geometry" />
        </mxCell>
        <mxCell id="IT2jW9cjP_Kab51hzpos-177" value="" style="whiteSpace=wrap;html=1;strokeWidth=2;fillColor=#CCCCCC;gradientColor=none;fontSize=14;align=center;strokeColor=#999999;" vertex="1" parent="1">
          <mxGeometry x="724" y="870" width="210" height="20" as="geometry" />
        </mxCell>
        <mxCell id="IT2jW9cjP_Kab51hzpos-178" value="" style="whiteSpace=wrap;html=1;strokeWidth=2;fillColor=#CCCCCC;gradientColor=none;fontSize=14;align=center;strokeColor=#999999;" vertex="1" parent="1">
          <mxGeometry x="864" y="890" width="140" height="20" as="geometry" />
        </mxCell>
        <mxCell id="IT2jW9cjP_Kab51hzpos-179" value="" style="whiteSpace=wrap;html=1;strokeWidth=2;fillColor=#CCCCCC;gradientColor=none;fontSize=14;align=center;strokeColor=#999999;" vertex="1" parent="1">
          <mxGeometry x="1004" y="910" width="70" height="20" as="geometry" />
        </mxCell>
        <mxCell id="IT2jW9cjP_Kab51hzpos-180" value="2nd Semester" style="strokeWidth=1;fontStyle=0;html=1;" vertex="1" parent="1">
          <mxGeometry x="297" y="730" width="1320" height="20" as="geometry" />
        </mxCell>
        <mxCell id="IT2jW9cjP_Kab51hzpos-181" value="Current System Evaluation" style="align=left;strokeColor=#CCCCCC;html=1;" vertex="1" parent="1">
          <mxGeometry x="297.0000000000003" y="949.9999999999998" width="319.9999999999997" height="20.000000000000014" as="geometry" />
        </mxCell>
        <mxCell id="IT2jW9cjP_Kab51hzpos-182" value="Requirement Gathering" style="align=left;strokeColor=#CCCCCC;html=1;" vertex="1" parent="1">
          <mxGeometry x="297" y="970.0000000000002" width="320" height="20" as="geometry" />
        </mxCell>
        <mxCell id="IT2jW9cjP_Kab51hzpos-183" value="Analysis of Requirements" style="align=left;strokeColor=#CCCCCC;html=1;" vertex="1" parent="1">
          <mxGeometry x="296.9999999999999" y="990.0000000000002" width="320.0000000000001" height="20" as="geometry" />
        </mxCell>
        <mxCell id="IT2jW9cjP_Kab51hzpos-184" value="System Concept Development" style="align=left;strokeColor=#CCCCCC;html=1;" vertex="1" parent="1">
          <mxGeometry x="296.9999999999999" y="1010.0000000000005" width="320.0000000000001" height="20" as="geometry" />
        </mxCell>
        <mxCell id="IT2jW9cjP_Kab51hzpos-185" value="Resource Allocation" style="align=left;strokeColor=#CCCCCC;html=1;" vertex="1" parent="1">
          <mxGeometry x="297.0000000000006" y="1030.0000000000007" width="319.9999999999994" height="20" as="geometry" />
        </mxCell>
        <mxCell id="IT2jW9cjP_Kab51hzpos-186" value="System Proposal Preparation" style="align=left;strokeColor=#CCCCCC;html=1;" vertex="1" parent="1">
          <mxGeometry x="297.0000000000006" y="1050.0000000000005" width="319.9999999999994" height="20" as="geometry" />
        </mxCell>
        <mxCell id="IT2jW9cjP_Kab51hzpos-187" value="Presentation to Client" style="align=left;strokeColor=#CCCCCC;html=1;" vertex="1" parent="1">
          <mxGeometry x="297.0000000000006" y="1070.0000000000005" width="319.9999999999994" height="20" as="geometry" />
        </mxCell>
        <mxCell id="IT2jW9cjP_Kab51hzpos-188" value="" style="align=left;strokeColor=#CCCCCC;html=1;" vertex="1" parent="1">
          <mxGeometry x="617" y="950" width="1000" height="20" as="geometry" />
        </mxCell>
        <mxCell id="IT2jW9cjP_Kab51hzpos-189" value="" style="align=left;strokeColor=#CCCCCC;html=1;" vertex="1" parent="1">
          <mxGeometry x="617" y="970" width="1000" height="20" as="geometry" />
        </mxCell>
        <mxCell id="IT2jW9cjP_Kab51hzpos-190" value="" style="align=left;strokeColor=#CCCCCC;html=1;" vertex="1" parent="1">
          <mxGeometry x="617" y="990" width="1000" height="20" as="geometry" />
        </mxCell>
        <mxCell id="IT2jW9cjP_Kab51hzpos-191" value="" style="align=left;strokeColor=#CCCCCC;html=1;" vertex="1" parent="1">
          <mxGeometry x="617" y="1010" width="1000" height="20" as="geometry" />
        </mxCell>
        <mxCell id="IT2jW9cjP_Kab51hzpos-192" value="" style="align=left;strokeColor=#CCCCCC;html=1;" vertex="1" parent="1">
          <mxGeometry x="617" y="1030" width="1000" height="20" as="geometry" />
        </mxCell>
        <mxCell id="IT2jW9cjP_Kab51hzpos-193" value="" style="align=left;strokeColor=#CCCCCC;html=1;" vertex="1" parent="1">
          <mxGeometry x="617" y="1050" width="1000" height="20" as="geometry" />
        </mxCell>
        <mxCell id="IT2jW9cjP_Kab51hzpos-194" value="" style="align=left;strokeColor=#CCCCCC;html=1;" vertex="1" parent="1">
          <mxGeometry x="617" y="1070" width="1000" height="20" as="geometry" />
        </mxCell>
        <mxCell id="IT2jW9cjP_Kab51hzpos-195" value="" style="whiteSpace=wrap;html=1;strokeWidth=2;fillColor=#CCCCCC;gradientColor=none;fontSize=14;align=center;strokeColor=#999999;" vertex="1" parent="1">
          <mxGeometry x="617" y="950" width="210" height="20" as="geometry" />
        </mxCell>
        <mxCell id="IT2jW9cjP_Kab51hzpos-196" value="" style="whiteSpace=wrap;html=1;strokeWidth=2;fillColor=#CCCCCC;gradientColor=none;fontSize=14;align=center;strokeColor=#999999;" vertex="1" parent="1">
          <mxGeometry x="687" y="970" width="140" height="20" as="geometry" />
        </mxCell>
        <mxCell id="IT2jW9cjP_Kab51hzpos-197" value="" style="whiteSpace=wrap;html=1;strokeWidth=2;fillColor=#CCCCCC;gradientColor=none;fontSize=14;align=center;strokeColor=#999999;" vertex="1" parent="1">
          <mxGeometry x="827" y="990" width="70" height="20" as="geometry" />
        </mxCell>
        <mxCell id="IT2jW9cjP_Kab51hzpos-198" value="" style="whiteSpace=wrap;html=1;strokeWidth=2;fillColor=#CCCCCC;gradientColor=none;fontSize=14;align=center;strokeColor=#999999;" vertex="1" parent="1">
          <mxGeometry x="897" y="1010" width="210" height="20" as="geometry" />
        </mxCell>
        <mxCell id="IT2jW9cjP_Kab51hzpos-199" value="" style="whiteSpace=wrap;html=1;strokeWidth=2;fillColor=#CCCCCC;gradientColor=none;fontSize=14;align=center;strokeColor=#999999;" vertex="1" parent="1">
          <mxGeometry x="724" y="1030" width="140" height="20" as="geometry" />
        </mxCell>
        <mxCell id="IT2jW9cjP_Kab51hzpos-200" value="" style="whiteSpace=wrap;html=1;strokeWidth=2;fillColor=#CCCCCC;gradientColor=none;fontSize=14;align=center;strokeColor=#999999;" vertex="1" parent="1">
          <mxGeometry x="724" y="1050" width="210" height="20" as="geometry" />
        </mxCell>
        <mxCell id="IT2jW9cjP_Kab51hzpos-201" value="" style="whiteSpace=wrap;html=1;strokeWidth=2;fillColor=#CCCCCC;gradientColor=none;fontSize=14;align=center;strokeColor=#999999;" vertex="1" parent="1">
          <mxGeometry x="864" y="1070" width="140" height="20" as="geometry" />
        </mxCell>
        <mxCell id="IT2jW9cjP_Kab51hzpos-202" value="&lt;b&gt;Analysis&lt;/b&gt;" style="strokeWidth=1;fontStyle=0;html=1;" vertex="1" parent="1">
          <mxGeometry x="297" y="930" width="320" height="20" as="geometry" />
        </mxCell>
        <mxCell id="IT2jW9cjP_Kab51hzpos-203" value="" style="align=left;strokeColor=#CCCCCC;html=1;flipH=1;" vertex="1" parent="1">
          <mxGeometry x="617" y="930" width="1000" height="20" as="geometry" />
        </mxCell>
        <mxCell id="IT2jW9cjP_Kab51hzpos-204" value="System Architecture Design" style="align=left;strokeColor=#CCCCCC;html=1;" vertex="1" parent="1">
          <mxGeometry x="297.0000000000003" y="1109.9999999999998" width="319.9999999999997" height="20.000000000000014" as="geometry" />
        </mxCell>
        <mxCell id="IT2jW9cjP_Kab51hzpos-205" value="Technology Stack Decision" style="align=left;strokeColor=#CCCCCC;html=1;" vertex="1" parent="1">
          <mxGeometry x="297" y="1130.0000000000002" width="320" height="20" as="geometry" />
        </mxCell>
        <mxCell id="IT2jW9cjP_Kab51hzpos-206" value="Data Modeling" style="align=left;strokeColor=#CCCCCC;html=1;" vertex="1" parent="1">
          <mxGeometry x="296.9999999999999" y="1150.0000000000002" width="320.0000000000001" height="20" as="geometry" />
        </mxCell>
        <mxCell id="IT2jW9cjP_Kab51hzpos-207" value="UI/UX Design" style="align=left;strokeColor=#CCCCCC;html=1;" vertex="1" parent="1">
          <mxGeometry x="296.9999999999999" y="1170.0000000000005" width="320.0000000000001" height="20" as="geometry" />
        </mxCell>
        <mxCell id="IT2jW9cjP_Kab51hzpos-208" value="Prototyping" style="align=left;strokeColor=#CCCCCC;html=1;" vertex="1" parent="1">
          <mxGeometry x="297.0000000000006" y="1190.0000000000007" width="319.9999999999994" height="20" as="geometry" />
        </mxCell>
        <mxCell id="IT2jW9cjP_Kab51hzpos-209" value="Design Reviews" style="align=left;strokeColor=#CCCCCC;html=1;" vertex="1" parent="1">
          <mxGeometry x="297.0000000000006" y="1210.0000000000005" width="319.9999999999994" height="20" as="geometry" />
        </mxCell>
        <mxCell id="IT2jW9cjP_Kab51hzpos-210" value="" style="align=left;strokeColor=#CCCCCC;html=1;" vertex="1" parent="1">
          <mxGeometry x="617" y="1110" width="1000" height="20" as="geometry" />
        </mxCell>
        <mxCell id="IT2jW9cjP_Kab51hzpos-211" value="" style="align=left;strokeColor=#CCCCCC;html=1;" vertex="1" parent="1">
          <mxGeometry x="617" y="1130" width="1000" height="20" as="geometry" />
        </mxCell>
        <mxCell id="IT2jW9cjP_Kab51hzpos-212" value="" style="align=left;strokeColor=#CCCCCC;html=1;" vertex="1" parent="1">
          <mxGeometry x="617" y="1150" width="1000" height="20" as="geometry" />
        </mxCell>
        <mxCell id="IT2jW9cjP_Kab51hzpos-213" value="" style="align=left;strokeColor=#CCCCCC;html=1;" vertex="1" parent="1">
          <mxGeometry x="617" y="1170" width="1000" height="20" as="geometry" />
        </mxCell>
        <mxCell id="IT2jW9cjP_Kab51hzpos-214" value="" style="align=left;strokeColor=#CCCCCC;html=1;" vertex="1" parent="1">
          <mxGeometry x="617" y="1190" width="1000" height="20" as="geometry" />
        </mxCell>
        <mxCell id="IT2jW9cjP_Kab51hzpos-215" value="" style="align=left;strokeColor=#CCCCCC;html=1;" vertex="1" parent="1">
          <mxGeometry x="617" y="1210" width="1000" height="20" as="geometry" />
        </mxCell>
        <mxCell id="IT2jW9cjP_Kab51hzpos-216" value="" style="whiteSpace=wrap;html=1;strokeWidth=2;fillColor=#CCCCCC;gradientColor=none;fontSize=14;align=center;strokeColor=#999999;" vertex="1" parent="1">
          <mxGeometry x="617" y="1110" width="210" height="20" as="geometry" />
        </mxCell>
        <mxCell id="IT2jW9cjP_Kab51hzpos-217" value="" style="whiteSpace=wrap;html=1;strokeWidth=2;fillColor=#CCCCCC;gradientColor=none;fontSize=14;align=center;strokeColor=#999999;" vertex="1" parent="1">
          <mxGeometry x="687" y="1130" width="140" height="20" as="geometry" />
        </mxCell>
        <mxCell id="IT2jW9cjP_Kab51hzpos-218" value="" style="whiteSpace=wrap;html=1;strokeWidth=2;fillColor=#CCCCCC;gradientColor=none;fontSize=14;align=center;strokeColor=#999999;" vertex="1" parent="1">
          <mxGeometry x="827" y="1150" width="70" height="20" as="geometry" />
        </mxCell>
        <mxCell id="IT2jW9cjP_Kab51hzpos-219" value="" style="whiteSpace=wrap;html=1;strokeWidth=2;fillColor=#CCCCCC;gradientColor=none;fontSize=14;align=center;strokeColor=#999999;" vertex="1" parent="1">
          <mxGeometry x="897" y="1170" width="210" height="20" as="geometry" />
        </mxCell>
        <mxCell id="IT2jW9cjP_Kab51hzpos-220" value="" style="whiteSpace=wrap;html=1;strokeWidth=2;fillColor=#CCCCCC;gradientColor=none;fontSize=14;align=center;strokeColor=#999999;" vertex="1" parent="1">
          <mxGeometry x="724" y="1190" width="140" height="20" as="geometry" />
        </mxCell>
        <mxCell id="IT2jW9cjP_Kab51hzpos-221" value="" style="whiteSpace=wrap;html=1;strokeWidth=2;fillColor=#CCCCCC;gradientColor=none;fontSize=14;align=center;strokeColor=#999999;" vertex="1" parent="1">
          <mxGeometry x="724" y="1210" width="210" height="20" as="geometry" />
        </mxCell>
        <mxCell id="IT2jW9cjP_Kab51hzpos-222" value="&lt;b&gt;Design&lt;/b&gt;" style="strokeWidth=1;fontStyle=0;html=1;" vertex="1" parent="1">
          <mxGeometry x="297" y="1090" width="320" height="20" as="geometry" />
        </mxCell>
        <mxCell id="IT2jW9cjP_Kab51hzpos-223" value="" style="align=left;strokeColor=#CCCCCC;html=1;flipH=1;" vertex="1" parent="1">
          <mxGeometry x="617" y="1090" width="1000" height="20" as="geometry" />
        </mxCell>
      </root>
    </mxGraphModel>
  </diagram>
</mxfile>
